# xmcd CD database file
# Copyright (C) 1993-1996 Ti Kan
#
# Track frame offsets:
#  150
#  9627
#  21412
#  31212
#  42432
#  52050
#  62752
#  75117
#  86610
#  97742
#
# Disc length: 1484 seconds
#
# Revision: 5
# Processed by: cddbd v1.5.2PL0 Copyright (c) Steve Scherf et al.
# Submitted via: Advanced CD Ripper Pro 2.0
#
DISCID=6f05ca0a
DTITLE=Brenda Lee - Jingle Bell Rock
DYEAR=1993
DGENRE=Christmas
TTITLE0=Rockin' Around The Christmas Tree
TTITLE1=This Time Of The Year
TTITLE2=Jingle Bell Rock
TTITLE3=Strawberry Snow
TTITLE4=Silver Bells
TTITLE5=Winter Wonderland
TTITLE6=Blue Christmas
TTITLE7=A Marshmallow World
TTITLE8=Christmas Will Be Just Another Lonely Day
TTITLE9=The Angel And The Little Blue Bell
EXTD=
EXTT0=
EXTT1=
EXTT2=
EXTT3=
EXTT4=
EXTT5=
EXTT6=
EXTT7=
EXTT8=
EXTT9=
PLAYORDER=
